<?xml version="1.0" encoding="utf-8"?>
<!-- Generator: Adobe Illustrator 24.2.1, SVG Export Plug-In . SVG Version: 6.00 Build 0)  -->
<svg version="1.1" id="a80234ba-f3f6-42a2-9225-8d803f7486aa"
	 xmlns="http://www.w3.org/2000/svg" xmlns:xlink="http://www.w3.org/1999/xlink" x="0px" y="0px" viewBox="0 0 877 639.5"
	 style="enable-background:new 0 0 877 639.5;" xml:space="preserve">
<style type="text/css">
	.st0{fill:#E6E6E6;}
	.st1{fill:#FFFFFF;}
	.st2{fill:#3C44B1;}
	.st3{fill:#3F3D56;}
	.st4{opacity:0.1;enable-background:new    ;}
	.st5{opacity:5.000000e-02;enable-background:new    ;}
	.st6{fill:#FFB8B8;}
	.st7{fill:#2F2E41;}
	.st8{fill:#575A89;}
</style>
<g>
	<rect x="116.3" y="0.4" class="st0" width="644.7" height="412.9"/>
	<rect x="134.7" y="52.2" class="st1" width="607.9" height="336.7"/>
	<rect x="116" class="st2" width="644.7" height="27.4"/>
	<circle class="st1" cx="136.4" cy="14" r="5.1"/>
	<circle class="st1" cx="155.6" cy="14" r="5.1"/>
	<circle class="st1" cx="174.9" cy="14" r="5.1"/>
	<rect x="209.5" y="79.8" class="st0" width="118.9" height="129"/>
	<rect x="379.2" y="79.8" class="st0" width="118.9" height="129"/>
	<rect x="548.9" y="79.8" class="st0" width="118.9" height="129"/>
	<rect x="209.5" y="232.2" class="st0" width="118.9" height="129"/>
	<rect x="379.2" y="232.2" class="st0" width="118.9" height="129"/>
	<rect x="548.9" y="232.2" class="st0" width="118.9" height="129"/>
	<path class="st1" d="M407.9,265.3l21.7-8.6l2.5,42.9c0,0,4.5,13.1,3,18.2c0,0,1,8.6-1.5,9.1s-9.6,1.5-10.1,1s-0.5-2-0.5-2
		s-5.1,3.5-5.6,7.6c0,0-21.2,6.6-21.7,0.5s10.6-11.1,10.6-11.1l8.6-13.1L407.9,265.3z"/>
	<path class="st1" d="M453.9,265.3l21.7-8.6l2.5,42.9c0,0,4.5,13.1,3,18.2c0,0,1,8.6-1.5,9.1s-9.6,1.5-10.1,1s-0.5-2-0.5-2
		s-5.1,3.5-5.6,7.6c0,0-21.2,6.6-21.7,0.5s10.6-11.1,10.6-11.1l8.6-13.1L453.9,265.3z"/>
	<path class="st3" d="M456,99.5c0,0-4.6,12.9,0.7,18.8l-4.5,15.4c0,0,15.9,47.6,11.3,54.3c0,0-16.9,8.5-50.8-3l13.8-53.4l-2-22.5
		l2.7-10.6l6-0.6c0,0-3.6,13.6,3,15.7s13.1-15.4,13.1-15.4L456,99.5z"/>
	<path class="st1" d="M242.4,182.9l5.8,2.4l27.9-36.6l8.8,43l5.8-1.1c3.7-37.1,6.8-74.9,3.1-92.7L272.1,97l-9.8,31.3l-4.8,21.2
		L242.4,182.9z"/>
	<path class="st1" d="M596.7,97.6c0,0-8,11.1-7.6,15.5s5.4,77.3,5.4,77.3l11.9,0.6l-3.5-52.5l2.9-14.2l7.2,66.1l14.6,0.4l-13-85.7
		l-2.5-7.6L596.7,97.6z"/>
	<path class="st3" d="M641.7,276c-2.1-2.5-5.8-3.9-9.2-4.7c0.1-0.3-10.6-2.5-10.8-2.1l-4-3.2l-12.4,6.4l-7-4.7l-3.2,1.2
		c0.1-0.6-10.1,1.2-10.1,1.2c-1.9,0.1-4.4,0.2-7.2,0.4c-9.7,0.7-10.5,26-10.5,26c4.5-1.8,9.3-2.8,14.1-3l2.6,30.2
		c13.6-1.2,27.8,0.2,42.5,3.5l6.9-23.7l16.1-6.3C649.4,297.3,646.7,282,641.7,276z"/>
	<path class="st1" d="M296.4,261.6c-1.7-2.1-4.7-3.2-7.6-3.8c0.1-0.3-8.7-2.1-8.9-1.7l-3.3-2.7l-10.2,5.3l-5.7-3.9l-2.7,0.9
		c0.1-0.5-8.3,1-8.3,1c-1.6,0.1-3.7,0.2-5.9,0.3c-8,0.6-8.7,21.4-8.7,21.4c3.7-1.5,7.6-2.3,11.6-2.4l2.2,60.9
		c11.2-1,22.9,0.2,35,2.9l5.7-55.6l13.3-5.2C302.8,279.1,300.6,266.6,296.4,261.6z"/>
	<polygon class="st0" points="414,612.6 333.6,629.1 331.7,628.9 261.1,621.8 261.1,532.2 347.6,517.6 410.3,524.9 410.4,525.3 
		410.4,525.5 	"/>
	<polygon class="st4" points="414,612.6 333.6,629.1 331.7,628.9 331.7,537.1 410.4,525.3 	"/>
	<polygon class="st5" points="410.4,525.5 410.3,525.5 331.7,537.1 261.1,532.2 347.6,517.6 410.3,524.9 410.4,525.3 	"/>
	
		<rect x="283" y="552" transform="matrix(6.512639e-02 -0.9979 0.9979 6.512639e-02 -299.9803 832.8524)" class="st1" width="23" height="49"/>
	
		<rect x="290.5" y="563.5" transform="matrix(6.512639e-02 -0.9979 0.9979 6.512639e-02 -299.9803 832.8524)" class="st2" width="8" height="26"/>
	<polygon class="st2" points="523,612.6 442.6,629.1 440.7,628.9 370.1,621.8 370.1,532.2 456.6,517.6 519.3,524.9 519.4,525.3 
		519.4,525.5 	"/>
	<polygon class="st4" points="523,612.6 442.6,629.1 440.7,628.9 440.7,537.1 519.4,525.3 	"/>
	<polygon class="st5" points="519.4,525.5 519.3,525.5 440.7,537.1 370.1,532.2 456.6,517.6 519.3,524.9 519.4,525.3 	"/>
	
		<rect x="392.9" y="552" transform="matrix(6.512639e-02 -0.9979 0.9979 6.512639e-02 -197.2473 942.5087)" class="st1" width="23" height="49"/>
	
		<rect x="400.4" y="563.5" transform="matrix(6.512639e-02 -0.9979 0.9979 6.512639e-02 -197.2473 942.5087)" class="st2" width="8" height="26"/>
	<path class="st6" d="M581.2,165.6c0,0,14.2,36.7-11.8,36.7s40.2,36.7,66.2,15.4s10.6-22.5,10.6-22.5s-34.3,3.5-33.1-27.2
		L581.2,165.6z"/>
	<circle class="st7" cx="599.7" cy="134.8" r="41.8"/>
	<path class="st7" d="M574.1,318.2L529.2,434c0,0-22.5,35.5-14.2,70.9s31,100,31,100s17.2,4.4,16-11s0.7-89.9-17-110l71.7-81.9
		l2.4,93.4c0,0-4.7,42.6-3.5,61.5c1.2,18.9,3.5,50.8,3.5,50.8l14.2-2.4c0,0,19.1-87.1,16.8-115.5c0,0,43.9-137.9-1-171L574.1,318.2z
		"/>
	<path class="st7" d="M550.9,604.8c0,0-5.8-1.5-6.5,3.8s-12.8,28.9-0.1,30.1s17.1-10.7,19.2-19.1s2.9-8.8,4.7-10.4
		c1.8-1.6,6-10.4,0.7-11s-8-5.9-8-5.9S559.3,607,550.9,604.8z"/>
	<path class="st7" d="M628.3,600.7c0,0-10.7-1.5-10,2.3s-1.5,19.9,0,21.5s4.6,4.6,4.6,6.9s0.8,10,13.8,7.7s10-13.8,9.2-15.3
		c-0.8-1.5-10-9.2-9.2-13.8C637.5,605.3,632.9,597.7,628.3,600.7z"/>
	<circle class="st6" cx="600.2" cy="152.3" r="29"/>
	<path class="st8" d="M627.9,192.2c0,0,10.1,20-20.3,20.6c-9.4,0.2-20.5-6.6-25.1-14.8c-2.7-4.8-3.4,1.8-7.8,1.3
		c-8.3-0.9-17.1,2.5-25.1,6.7c-2.1,1.1-3.1,3.6-2.4,5.9c6,19.9,23.2,115.9,25.8,121.1c6.8,13.3,80-9,80-9c1-36.3-12.2-87.1,11-124
		C653.7,192.3,640.5,189.4,627.9,192.2z"/>
	<polygon class="st7" points="627.3,130 606.1,118.9 576.8,123.4 570.7,150.2 585.8,149.6 590,139.8 590,149.5 597,149.2 601,133.5 
		603.5,150.2 628.3,149.7 	"/>
	<circle class="st7" cx="601.9" cy="87.1" r="16.9"/>
	<path class="st7" d="M580.6,82c0-8.3,6.1-15.4,14.3-16.7c-9.2-1.4-17.8,4.9-19.2,14.1c-1.4,9.2,4.9,17.8,14.1,19.2
		c1.7,0.3,3.4,0.3,5.1,0C586.7,97.4,580.6,90.3,580.6,82z"/>
	<polygon class="st0" points="678,483.6 597.6,500.1 595.7,499.9 525.1,492.8 525.1,403.2 611.6,388.6 674.3,395.9 674.4,396.3 
		674.4,396.5 	"/>
	<polygon class="st4" points="678,483.6 597.6,500.1 595.7,499.9 595.7,408.1 674.4,396.3 	"/>
	<polygon class="st5" points="674.4,396.5 674.3,396.5 595.7,408.1 525.1,403.2 611.6,388.6 674.3,395.9 674.4,396.3 	"/>
	
		<rect x="547" y="423" transform="matrix(6.512639e-02 -0.9979 0.9979 6.512639e-02 75.5525 975.6932)" class="st1" width="23" height="49"/>
	
		<rect x="554.5" y="434.5" transform="matrix(6.512639e-02 -0.9979 0.9979 6.512639e-02 75.5525 975.6932)" class="st2" width="8" height="26"/>
	<path class="st6" d="M552.7,380.2c0,0-29.6,23.6-16.6,31.9s28.4-31.9,28.4-31.9L552.7,380.2z"/>
	<path class="st8" d="M554,205c-1.5-1.7-20.9,8.1-18,21l1.3,89.1c0,0-7.1,73.3,10.6,73.3s15.6,2.5,18-3.4s3-56,3-56L554,205z"/>
	<path class="st6" d="M645.5,372.2c0,0,15.4,40.2,28.4,31.9s-16.6-31.9-16.6-31.9L645.5,372.2z"/>
	<path class="st8" d="M649,322c0,0-7.4,49.1-5,55s0.3,3.4,18,3.4s10.6-73.3,10.6-73.3L674,218c2.9-12.9-16.5-22.7-18-21l-17,58
		L649,322z"/>
</g>
</svg>
