<?xml version="1.0" encoding="utf-8"?>
<!-- Generator: Adobe Illustrator 24.2.1, SVG Export Plug-In . SVG Version: 6.00 Build 0)  -->
<svg version="1.1" id="e787d81d-0c9d-4dff-a480-fc2df6240d6f"
	 xmlns="http://www.w3.org/2000/svg" xmlns:xlink="http://www.w3.org/1999/xlink" x="0px" y="0px" viewBox="0 0 651.5 581.3"
	 style="enable-background:new 0 0 651.5 581.3;" xml:space="preserve">
<style type="text/css">
	.st0{fill:#F2F2F2;}
	.st1{fill:#FFFFFF;}
	.st2{fill:#CCCCCC;}
	.st3{fill:#3C44B1;}
	.st4{fill:#3F3D56;}
	.st5{fill:#A0616A;}
	.st6{fill:#2F2E41;}
	.st7{opacity:0.2;enable-background:new    ;}
</style>
<g>
	<path class="st0" d="M229.2,541.5c-0.1,12.9-1.1,25.7-2.8,38.5c-0.1,0.4-0.1,0.9-0.2,1.3l-120.5-0.7c-0.4-0.4-0.7-0.9-1-1.3
		c-1.1-1.5-2.2-3.1-3.1-4.7c-4.7-7.7-6.8-16.8-4.6-23l0-0.1c0.5-1.4,1.2-2.6,2.1-3.7c4.9-5.5,14.7-4.6,23.6-0.1
		c-8-8.8-14.4-19.8-14.9-29.7c-0.5-9.6,4.6-16.5,10-22.4c0.2-0.2,0.4-0.4,0.5-0.6c0.1-0.1,0.2-0.2,0.3-0.3c4.3-4.5,9.2-8.8,16.4-8.3
		c7.9,0.6,16.6,7.2,22.8,14.9c6.1,7.7,10.2,16.4,14.3,25c4.1,8.5,8.6,17.3,15.2,24.5c-9-11.4-16.2-24.3-18.9-36.9
		s-0.3-24.7,7.7-30.6c2.4-1.7,5.2-2.9,8.2-3.3c0.3-0.1,0.7-0.1,1.1-0.1c7.4-0.8,16.3,1.7,23.8,7.8c8.3,6.7,14,16.8,16.9,26.2
		C229,523.5,229.3,532.7,229.2,541.5z"/>
	<path class="st1" d="M150.4,580.9l-2.3,0c-0.7-0.5-1.5-0.9-2.2-1.4c-0.5-0.3-0.9-0.6-1.4-0.8c-7.6-4.7-15.3-9.1-23.1-13.4
		c-7.7-4.3-15.5-8.4-23.3-12.3c-0.4-0.2-0.7-0.7-0.6-1.1c0,0,0-0.1,0-0.1c0.1-0.2,0.4-0.3,0.7-0.1c1,0.5,1.9,1,2.9,1.5
		c7.8,4,15.6,8.1,23.4,12.5c7.8,4.4,15.5,8.9,23.1,13.6c0.2,0.1,0.3,0.2,0.5,0.3C148.9,580,149.6,580.4,150.4,580.9z"/>
	<path class="st1" d="M180.1,581.1l-1.4,0c-0.3-0.4-0.6-0.9-1-1.3c-7.5-10.6-15.1-21.2-22.6-31.8c-12.4-17.3-24.7-34.7-37.1-52
		c-0.1-0.1-0.1-0.2-0.2-0.3c-0.1-0.4,0.2-0.6,0.5-0.6c0.3,0,0.6,0.2,0.8,0.5c6.9,9.7,13.9,19.4,20.8,29.1
		c12.3,17.2,24.6,34.5,36.9,51.7c0.8,1.1,1.6,2.2,2.3,3.3C179.4,580.2,179.8,580.6,180.1,581.1z"/>
	<path class="st1" d="M211.8,572.8c-0.1,2.4-0.2,4.8-0.4,7.1c0,0.4-0.1,0.9-0.1,1.3l-1.5,0c0-0.4,0.1-0.9,0.1-1.3
		c0.3-3.4,0.5-6.8,0.6-10.3c0-9.7-0.9-19.5-2.8-29c-2-10.3-5-20.4-8.8-30.1c-4-10.3-8.8-20.3-14.4-29.8c-0.1-0.2-0.2-0.3-0.1-0.5
		c0.1-0.4,0.6-0.6,1.1-0.1c0.1,0.1,0.2,0.2,0.2,0.3c0.7,1.2,1.4,2.4,2,3.6c5.4,9.6,10,19.6,13.7,29.9c3.6,9.8,6.3,19.9,8.2,30.2
		C211.3,553.4,212.1,563.1,211.8,572.8z"/>
	<path class="st2" d="M360.2,19c0-10.5,8.5-19,19-19s19,8.5,19,19s-8.5,19-19,19l0,0C368.7,38,360.2,29.5,360.2,19z M396.2,19
		c0-9.4-7.6-17-17-17s-17,7.6-17,17s7.6,17,17,17l0,0C388.6,36,396.2,28.4,396.2,19z"/>
	<circle class="st3" cx="379.2" cy="19" r="11"/>
	<circle class="st2" cx="315.2" cy="19" r="18"/>
	<circle class="st2" cx="251.2" cy="19" r="18"/>
	<path class="st4" d="M555.2,346h-459c-9.4,0-17-7.6-17-17V88c0-9.4,7.6-17,17-17h459c9.4,0,17,7.6,17,17v241
		C572.2,338.4,564.6,346,555.2,346z M96.2,73c-8.3,0-15,6.7-15,15v241c0,8.3,6.7,15,15,15h459c8.3,0,15-6.7,15-15V88
		c0-8.3-6.7-15-15-15H96.2z"/>
	<path class="st2" d="M252.2,282h-118c-9.4,0-17-7.6-17-17V147c0-9.4,7.6-17,17-17h118c9.4,0,17,7.6,17,17v118
		C269.2,274.4,261.6,282,252.2,282z M134.2,132c-8.3,0-15,6.7-15,15v118c0,8.3,6.7,15,15,15h118c8.3,0,15-6.7,15-15V147
		c0-8.3-6.7-15-15-15H134.2z"/>
	<path class="st2" d="M543.2,194h-227c-4.4,0-8-3.6-8-8s3.6-8,8-8h227c4.4,0,8,3.6,8,8S547.6,194,543.2,194z"/>
	<path class="st2" d="M428.2,160h-112c-4.4,0-8-3.6-8-8s3.6-8,8-8h112c4.4,0,8,3.6,8,8S432.6,160,428.2,160z"/>
	<path class="st2" d="M543.2,261h-227c-4.4,0-8-3.6-8-8c0-4.4,3.6-8,8-8h227c4.4,0,8,3.6,8,8C551.2,257.4,547.6,261,543.2,261z"/>
	<path class="st2" d="M428.2,227h-112c-4.4,0-8-3.6-8-8s3.6-8,8-8h112c4.4,0,8,3.6,8,8S432.6,227,428.2,227z"/>
	<path class="st2" d="M263.8,277.1c-0.3,0-0.5-0.1-0.7-0.3L123.5,135.3c-0.4-0.4-0.4-1,0-1.4s1-0.4,1.4,0l139.6,141.5
		c0.4,0.4,0.4,1,0,1.4C264.3,276.9,264.1,277.1,263.8,277.1z"/>
	<path class="st2" d="M122.7,277.1c-0.6,0-1-0.4-1-1c0-0.3,0.1-0.5,0.3-0.7l139.6-141.5c0.4-0.4,1-0.4,1.4,0c0.4,0.4,0.4,1,0,1.4
		c0,0,0,0,0,0L123.4,276.8C123.2,276.9,122.9,277.1,122.7,277.1z"/>
	<path class="st3" d="M536.2,316.5h-64c-8.6,0-15.5-6.9-15.5-15.5s6.9-15.5,15.5-15.5h64c8.6,0,15.5,6.9,15.5,15.5
		S544.8,316.5,536.2,316.5z"/>
	<path class="st4" d="M104.4,581.2h301c0.6,0,1-0.4,1-1s-0.4-1-1-1h-301c-0.6,0-1,0.4-1,1S103.9,581.2,104.4,581.2z"/>
	<polygon class="st5" points="292.3,569.8 304.6,569.8 310.4,522.5 292.3,522.5 	"/>
	<path class="st6" d="M328.2,581.2l-38.5,0l0,0l0-14.9l0,0l23.6,0C321.6,566.3,328.2,572.9,328.2,581.2L328.2,581.2L328.2,581.2z"/>
	<polygon class="st5" points="203.4,555.9 214.5,561 239.5,520.4 223,512.9 	"/>
	<path class="st6" d="M231.3,581.2l-35-16l0,0l6.2-13.5l0,0l21.5,9.8C231.4,564.8,234.7,573.7,231.3,581.2L231.3,581.2L231.3,581.2z
		"/>
	<path class="st5" d="M239.1,410.3c-4.4-3.3-5.3-9.6-2-14.1c0.4-0.5,0.8-0.9,1.2-1.3l-14.4-32.7l18.3,3.1l10.9,30.6
		c3.5,4.3,2.9,10.7-1.5,14.2C248,413.1,242.8,413.2,239.1,410.3z"/>
	<path class="st6" d="M288.6,553.3l-11.8-102.7c-0.2-1.9-2-3.3-3.9-3.1c-1.5,0.2-2.7,1.3-3,2.8l-5.8,28.1c-0.1,0.4-0.2,0.8-0.4,1.1
		l-34.1,66.4c-1,2-3.4,2.9-5.6,2.2l-11.9-4.4c-2.3-0.9-3.5-3.4-2.7-5.8c0,0,0,0,0-0.1l27.8-72.1c0.1-0.4,0.2-0.8,0.2-1.2l1.4-75.2
		c0-2.3,1.8-4.2,4.1-4.4l73.7-7.2c2.5-0.2,4.7,1.6,4.9,4c0,0.3,0,0.5,0,0.8l-12.4,170.6c-0.2,2.3-2.1,4.2-4.5,4.2h-11.7
		C290.8,557.3,288.9,555.6,288.6,553.3z"/>
	<circle class="st5" cx="287.3" cy="224.7" r="24.6"/>
	<path class="st3" d="M308.6,262.6c-0.7-0.3-1.3-0.6-2-0.9h0c-16.4-7.4-35.6-5.3-50,5.4c-13.1,9.7-19.4,24.4-17.3,40.2
		c4.4,33.4-0.6,78.6-1.2,83.2c40.4,18.6,75.8-4.8,78.9-6.9L308.6,262.6z"/>
	<path class="st3" d="M237,390.1c-1.5-0.2-2.8-1.2-3.4-2.6L213,341.8c-1.6-3.5-1.3-7.5,0.7-10.7L239,290c2.2-4,7.2-5.6,11.3-3.4
		c2.1,1.1,3.6,3.1,4.1,5.3c0.5,1.9,0.3,3.8-0.6,5.5l-18.7,39.3l12.3,41.6c0.4,1.5,0.1,3.1-1,4.3l-5.4,5.9c-0.8,0.9-2.1,1.5-3.3,1.5
		C237.5,390.1,237.2,390.1,237,390.1z"/>
	<path class="st7" d="M294.4,380.5l-3.8-76.2l1-0.1l17.1,80.6h-9.8C296.5,384.8,294.5,382.9,294.4,380.5z"/>
	<path class="st5" d="M307.9,404.8c-3.6-4.2-3.2-10.5,1-14.2c0.4-0.4,0.9-0.7,1.4-1l-7.3-35l17.3,6.8l4.3,32.2
		c2.5,5,0.6,11.1-4.4,13.6C316.1,409.4,311,408.4,307.9,404.8z"/>
	<path class="st3" d="M304.5,381.1L290,284.9l0-0.1l2.8-12.8c1.6-7.3,8.8-11.9,16.1-10.3c6,1.3,10.4,6.5,10.6,12.7l4.3,104.8
		c0.1,2.4-1.7,4.4-4,4.7l-10.5,1.2c-0.2,0-0.3,0-0.5,0C306.7,384.9,304.8,383.3,304.5,381.1z"/>
	<path class="st6" d="M277.2,247c-6.8-0.1-13-4-15.9-10.2l0,0c-2.3-4.8-3.5-8.7-3.8-11.4c-0.6-7.4,3.6-19,9.1-25.4
		c6.1-7,15.7-7.9,25-8.9c2.5-0.3,5.2-0.5,7.6-0.9c2.1-0.3,4.8-0.7,7,0.1c1.3,0.5,2.4,1.5,2.9,2.8c0.2,0.5,0.5,0.8,1,1
		c0.4,0.1,0.8,0.1,1.2-0.1c0.8-0.4,1.7-0.4,2.4,0c0.7,0.3,1.1,1,1.3,1.7c0,0.3,0.1,0.5,0.2,0.7c0.4,0.7,1.1,1.2,1.9,1.4
		c1.2,0.3,2.1,1.4,2,2.7c-0.1,1.3-0.2,2.6-0.3,3.9c-0.2,5-0.5,10.1-5.5,10c-1.3-0.1-2.5-0.3-3.8-0.7c-1.8-0.5-3.2-0.9-5.1,0.3
		c-3,1.8-3.4,5.7-3.9,9.1l-0.1,0.6c-0.5,3.9-2.5,8.6-6.7,8.9c-1.3,0-2.6-0.2-3.9-0.7c-1.3-0.6-2.7-0.7-4-0.5
		c-2.3,0.6-3.4,3.4-3.3,5.7c0.1,1,0.2,1.9,0.4,2.9c0.3,1.5,0.4,3,0.3,4.6c-0.1,0.9-1.2,1.5-3.4,1.9C279.2,246.9,278.2,247,277.2,247
		z"/>
</g>
</svg>
